<svg xmlns="http://www.w3.org/2000/svg" xmlns:xlink="http://www.w3.org/1999/xlink" width="26.575" height="31.944" viewBox="0 0 26.575 31.944"><defs><clipPath id="a"><rect width="26.575" height="31.944" fill="none"/></clipPath></defs><g clip-path="url(#a)"><path d="M13.5,0a.776.776,0,0,1,.322.724c-.014,1-.005,1.99-.006,2.985a1.632,1.632,0,0,1-.012.28.53.53,0,0,1-.521.444.491.491,0,0,1-.475-.482c-.013-.176-.007-.352-.007-.529,0-.9.007-1.8,0-2.706A.736.736,0,0,1,13.122,0Z"/><path d="M13.3,25.862c-1.164,0-2.329,0-3.493,0-.61,0-.719-.152-.77-.751a20.031,20.031,0,0,0-.311-2.277,3.586,3.586,0,0,0-1.14-1.89,7.731,7.731,0,0,1-2.2-3.737A7.87,7.87,0,0,1,6.979,9.863a7.891,7.891,0,0,1,7.339-2.936,8.171,8.171,0,0,1,7.105,6.989,7.892,7.892,0,0,1-2.314,6.916,5.4,5.4,0,0,0-1.493,3.559c-.021.258-.019.519-.025.779-.011.516-.178.689-.7.691-1.2,0-2.391,0-3.587,0m-.011-1.056h2.588c.673,0,.663,0,.707-.671a5.894,5.894,0,0,1,.893-2.946A13.716,13.716,0,0,1,18.6,19.9,7.148,7.148,0,1,0,6.182,14.475,6.974,6.974,0,0,0,8.214,20.1a7.894,7.894,0,0,1,.927,1.087,6.634,6.634,0,0,1,.94,3.285c.018.283.116.344.375.341.945-.012,1.891-.005,2.837-.005"/><path d="M13.3,28.956c-1.112,0-2.224.01-3.335,0a1.17,1.17,0,0,1-1.084-.8,1.234,1.234,0,0,1,.349-1.334,1.37,1.37,0,0,1,.954-.31q3.132,0,6.265,0c.052,0,.1,0,.156,0a1.219,1.219,0,0,1,1.212,1.242,1.188,1.188,0,0,1-1.213,1.2c-1.1.017-2.2,0-3.3,0v0m.008-1.016H15.58c.311,0,.623.012.933-.009.088,0,.169-.106.253-.163a2.017,2.017,0,0,0-.242-.23c-.042-.029-.121-.007-.183-.007q-3.036,0-6.071,0a.71.71,0,0,0-.274.032c-.064.027-.154.119-.145.164a.325.325,0,0,0,.16.2.564.564,0,0,0,.245.015h3.051"/><path d="M13.342,31.942c-.748,0-1.5,0-2.243,0a1.22,1.22,0,0,1-1.3-1.214,1.206,1.206,0,0,1,1.277-1.233q2.244-.01,4.486,0a1.224,1.224,0,1,1-.008,2.446c-.738.007-1.475,0-2.212,0m-.014-1.019c.706,0,1.411,0,2.117,0,.15,0,.347.033.351-.2s-.181-.213-.34-.213c-1.422,0-2.843,0-4.265.009-.122,0-.342.119-.345.19-.011.23.2.213.365.213h2.117"/><path d="M26.162,7.57c.132.114.348.212.393.362s0,.486-.109.55q-1.587.91-3.219,1.742a.425.425,0,0,1-.583-.273.471.471,0,0,1,.192-.624c.234-.153.485-.277.731-.411q1.065-.578,2.133-1.151c.126-.067.264-.112.462-.195"/><path d="M.553,7.6a1.617,1.617,0,0,1,.27.1c.95.508,1.9,1.017,2.844,1.536.42.231.479.656.11.886a.65.65,0,0,1-.541.038C2.25,9.651,1.278,9.116.3,8.587a.527.527,0,0,1-.275-.658A.472.472,0,0,1,.553,7.6"/><path d="M7.836,5.719c-.106.123-.2.324-.354.384a.905.905,0,0,1-.514-.074c-.065-.02-.111-.118-.156-.187Q5.956,4.5,5.1,3.165c-.131-.2-.218-.438-.045-.633a.69.69,0,0,1,.472-.211.581.581,0,0,1,.391.257c.6.91,1.183,1.831,1.766,2.752a2.476,2.476,0,0,1,.15.389"/><path d="M19.6,6.268c-.428-.005-.652-.305-.566-.615a1.27,1.27,0,0,1,.17-.329q.823-1.249,1.653-2.494a1.826,1.826,0,0,1,.106-.154.5.5,0,0,1,.687-.16.512.512,0,0,1,.142.715c-.159.267-.338.523-.51.783-.419.632-.829,1.271-1.265,1.89a1.967,1.967,0,0,1-.417.364"/><path d="M13.293,24.806c-.946,0-1.892-.007-2.838.005-.258,0-.356-.058-.374-.341a6.64,6.64,0,0,0-.94-3.285A7.825,7.825,0,0,0,8.213,20.1a6.977,6.977,0,0,1-2.031-5.623A7.148,7.148,0,1,1,18.595,19.9a13.714,13.714,0,0,0-1.114,1.292,5.9,5.9,0,0,0-.894,2.946c-.044.671-.033.672-.706.672H13.293M13.6,8.955c-.114,0-.229-.008-.343,0a.481.481,0,0,0-.481.443.512.512,0,0,0,.372.6,1.633,1.633,0,0,0,.4.061,5.258,5.258,0,0,1,4.795,3.6,9.814,9.814,0,0,1,.3,1.644c.049.369.249.624.565.623a.58.58,0,0,0,.551-.631,2.745,2.745,0,0,0-.013-.374,6.443,6.443,0,0,0-.67-2.414A6.377,6.377,0,0,0,13.6,8.955" fill="#ffd500"/><path d="M13.307,27.94H10.256a.564.564,0,0,1-.245-.015.325.325,0,0,1-.16-.2c-.009-.045.081-.137.145-.164a.73.73,0,0,1,.274-.032q3.036,0,6.071,0c.062,0,.141-.022.183.007a2.017,2.017,0,0,1,.242.23c-.084.057-.165.158-.253.163-.31.021-.622.009-.933.009H13.307" fill="#fff"/><path d="M13.328,30.923H11.211c-.167,0-.376.017-.365-.213,0-.071.223-.189.345-.19,1.422-.014,2.843-.009,4.265-.009.159,0,.343-.009.34.213s-.2.2-.351.2c-.706,0-1.411,0-2.117,0" fill="#fff"/><path d="M13.6,8.955a6.377,6.377,0,0,1,5.473,3.557,6.443,6.443,0,0,1,.67,2.414,2.745,2.745,0,0,1,.013.374.58.58,0,0,1-.551.631c-.316,0-.516-.254-.565-.623a9.814,9.814,0,0,0-.3-1.644,5.258,5.258,0,0,0-4.795-3.6,1.633,1.633,0,0,1-.4-.061.512.512,0,0,1-.372-.6.481.481,0,0,1,.481-.443c.114-.01.229,0,.343,0"/></g></svg>